<svg width="32" height="32" viewBox="0 0 32 32" fill="none" xmlns="http://www.w3.org/2000/svg">
<path d="m7.875 12.7-7.11-4.11a.5.5 0 0 1-.059-.84l14.239-11.178a.5.5 0 0 1 .61 0l14.24 11.178a.5.5 0 0 1-.06.84l-7.11 4.11" stroke="#646cff" stroke-width="1.5"/>
<path d="m7.875 12.7-.622 11.925a.5.5 0 0 0 .234.486l8.513 5.39a.5.5 0 0 0 .522 0l8.513-5.39a.5.5 0 0 0 .234-.486L24.647 12.7" stroke="#646cff" stroke-width="1.5"/>
<path d="M16 22.5 7.875 12.7" stroke="#646cff" stroke-width="1.5"/>
<path d="M16 22.5 24.125 12.7" stroke="#646cff" stroke-width="1.5"/>
</svg>